<svg xmlns="http://www.w3.org/2000/svg" xmlns:xlink="http://www.w3.org/1999/xlink" width="28" height="25" viewBox="0 0 28 25"><defs><path id="a" d="M656.2 898.3L645.99 909l-10.22-10.7a6.1 6.1 0 0 1 0-8.56 5.96 5.96 0 0 1 8.48 0l1.74 2.14 1.75-2.14a5.96 5.96 0 0 1 8.48 0 6.1 6.1 0 0 1 0 8.56zm-6.48-8.21l-3.74 3.3-2.74-3.3a4.77 4.77 0 0 0-7.2 1c-1.13 1.7-1.44 3.84 0 5.3l9.94 10.61 9.94-10.61a3.8 3.8 0 0 0 0-5.3c-1.44-1.47-4.77-2.47-6.2-1z"/></defs><g transform="translate(-632 -886)"><use fill="#333" xlink:href="#a"/></g></svg>